# xmcd CD database file
#
# Track frame offsets:
#	150
#	17568
#	41475
#	67355
#	100099
#	117355
#	126816
#	157843
#
# Disc length: 2633 seconds
#
# Revision: 0
# Processed by: cddbd v1.5.1PL2 Copyright (c) Steve Scherf et al.
# Submitted via: CDex 1.51
#
DISCID=630a4708
DTITLE=Benny Gleeson - Sons Of Glee
DYEAR=2003
DGENRE=Jazz
TTITLE0=Sons Of Glee
TTITLE1=Agnostic Soul Prayer
TTITLE2=Rising
TTITLE3=Fighting The Surge
TTITLE4=Rock That Boogie
TTITLE5=Children Of Glee
TTITLE6=Homo Homini Salvator
TTITLE7=A Glimpse Through The Window Of Change
EXTD=YEAR: 2003
EXTT0=
EXTT1=
EXTT2=
EXTT3=
EXTT4=
EXTT5=
EXTT6=
EXTT7=
PLAYORDER=
